<svg xmlns="http://www.w3.org/2000/svg" width="177" height="52" fill="#fff" xmlns:v="https://vecta.io/nano"><path d="M7.8 23.383l2.654-1.3 4.195-6.282 1.284-.523 1.37 6.37-1.798.262-1.37-2.617-1.027 4.1h4.537l4.7 1.22 1.884-1.22 3.168 3.315 1.37-6.107 2.226 2.27 1.37-1.92 2.226-.6 3.253-3.054.514-1.483L41 16.23l1.113 1.483-1.97 4.188 4.88-2.53v-1.22l1.883-.436 2.055 2.094 2.055-2.53v-1.75l3.34-2.356 1.37-2.007h2.14l3.767-7.765L64.894 0l1.198 1.92-1.883 2.443.685 1.57 1.798.35 1.455 6.456v5.4l2.568 3.577L72 26.698l-4.452-2.88-1.97-8.3-1.2.262-.17 5.584-3.253 5.322-.942 8.114 2.226.523.942-1.134 2.14 2.443 1.627 7.33-.17 4.7h-2.055l-.77-6.63-1.455 2.007-3.168-.698-2.568-2.18-2.9 1.047.17 4.7-2.312.6-3.424 2.617-4.1-.523-1.627-.96-2.568.436.856 1.047-2.055 1.22-1.627-.785-3.08 1.4-4.7-2.356-1.798-4.188-1.54.174-1.798-1.483-.086-1.134-5.736-.6-.942 3.14-3.596-1.658-1.798-3.054H8.22l-.428 4.886-2.226.698-1.113 4.45-.856-.785L0 40.745l4.28-2.094-.685-4.1-.685-4.188 1.883-2.705-.6-1.658 2.568-2.792 1.027.174zm56.932 10.295l3.938 5.933 1.284-.523-1.627-2.443-3.596-3.84v.873zm-40.238-12.04v-1.745l2.997-2.18 2.568-1.3h-2.996l-2.654 1.57-1.627 1.483v2.18h1.712zM90.125 41h4.74v-5.18H97.5c3.98 0 6.647-2.344 6.647-6.102 0-3.716-2.6-6.17-6.477-6.17h-7.534V41zm4.74-8.864V27.33h1.67c1.662 0 2.66.886 2.66 2.386 0 1.5-.997 2.42-2.66 2.42h-1.67zm17.105 9.104c4.26 0 6.784-2.727 6.784-6.75s-2.523-6.75-6.784-6.75-6.784 2.727-6.784 6.75 2.522 6.75 6.784 6.75zm.034-3.477c-1.262 0-2.012-1.253-2.012-3.307s.75-3.307 2.012-3.307c1.193 0 1.943 1.253 1.943 3.307s-.75 3.307-1.943 3.307zm14.966 3.477c3.878 0 6.255-2.224 6.307-5.693h-4.364c-.102 1.372-.844 2.114-1.875 2.114-1.236 0-2.046-1.057-2.046-3.205s.8-3.205 2.046-3.205c1.04 0 1.747.742 1.875 2.114h4.364c-.026-3.4-2.455-5.625-6.307-5.625-4.262 0-6.784 2.727-6.784 6.75s2.522 6.75 6.784 6.75zm14.553 0c3.878 0 6.256-2.224 6.307-5.693h-4.363c-.103 1.372-.844 2.114-1.875 2.114-1.236 0-2.046-1.057-2.046-3.205s.8-3.205 2.046-3.205c1.04 0 1.747.742 1.875 2.114h4.363c-.025-3.4-2.454-5.625-6.307-5.625-4.26 0-6.784 2.727-6.784 6.75s2.523 6.75 6.784 6.75zm12.68-6.24v-7.1h-4.432V41h4.432l3.648-7.125V41h4.432V27.9h-4.432l-3.648 7.1zm18.01 6h4.363V27.9h-6.136c-3.776 0-6.162 1.9-6.136 4.568-.017 1.492.877 2.727 2.446 3.46L164.166 41h4.33l2.207-4.33h1.5V41zm0-7.16h-1.67c-1.253 0-1.832-.614-1.807-1.193-.025-.546.52-1.227 1.705-1.227h1.773v2.42z"/></svg>